:SAMPLES-PER-SECOND 30
:FULLY-SPECIFIED
:DEGREES
185
root  0.149856 22.0148 1.16988 -31.8777 84.1631 -5.81583
RightUpLeg  -55.775 -10.912 -3.81529
RightLeg  94.4825 19.6521 -22.9646
RightFoot  -17.7337 0.314582 6.57172
RightToes  5.82077e-011 -3.18055e-015 -2.98177e-016
Spine  26.5779 -1.51307 11.2199
Spine1  9.60013 2.00681 -1.41806
HEad  -14.4978 -1.56959 0.934333
LeftShoulder1  -3.88251e-019 9.70628e-020 -3.87848e-018
LeftArm  -29.072 57.0902 -73.1615
LeftForeArm  -30.9416 -18.2813 -1.56233
LeftHand  -0.220065 0.366397 5.54629
RightShoulder  8.16151 10.9613 37.7067
RightArm  12.7622 -35.7766 19.7876
RightForeArm  9.51924 16.8783 -5.21991
RightHand  -1.24924 5.75727 -12.9503
LeftUpLeg  -50.4318 -5.99884 14.1076
LeftLeg  106.109 -12.6852 -2.09089
LeftFoot  -28.968 -1.53346 -10.4052
LeftToes  7.79675e-011 9.80247e-012 -3.28897e-011
186
root  0.109855 22.0178 1.15923 -32.2208 84.0558 -5.90907
RightUpLeg  -55.5502 -10.8718 -3.78099
RightLeg  94.3951 19.606 -22.9175
RightFoot  -17.6434 0.304496 6.45362
RightToes  5.82077e-011 -3.18055e-015 -2.98177e-016
Spine  26.4123 -1.49452 11.1563
Spine1  9.71451 1.99676 -1.35409
HEad  -14.3017 -1.42713 0.878615
LeftShoulder1  -3.88251e-019 9.70628e-020 -3.87848e-018
LeftArm  -28.1003 55.7976 -72.7676
LeftForeArm  -35.1709 -19.8868 -0.982388
LeftHand  -0.274618 0.190604 6.68027
RightShoulder  8.209 10.9738 37.9091
RightArm  8.49857 -35.7197 20.057
RightForeArm  13.2782 14.9199 -3.97634
RightHand  -1.21013 5.51519 -12.8197
LeftUpLeg  -50.1242 -6.20163 14.1272
LeftLeg  105.988 -12.7325 -1.95661
LeftFoot  -29.0884 -1.5609 -10.5174
LeftToes  7.79675e-011 9.80247e-012 -3.28897e-011
187
root  0.0899636 22.0079 1.14768 -32.3249 83.9041 -5.82948
RightUpLeg  -55.4282 -10.7721 -3.74564
RightLeg  94.3931 19.5883 -22.8465
RightFoot  -17.5729 0.296857 6.36427
RightToes  5.82077e-011 -3.18055e-015 -2.98177e-016
Spine  26.2255 -1.40675 11.0288
Spine1  9.80297 1.9976 -1.13472
HEad  -14.0635 -1.32936 0.736856
LeftShoulder1  -3.88251e-019 9.70628e-020 -3.87848e-018
LeftArm  -26.8678 54.359 -72.5237
LeftForeArm  -33.8348 -21.0019 -0.473179
LeftHand  -0.36477 -0.393684 7.959
RightShoulder  8.19849 10.9734 37.859
RightArm  6.56383 -36.0658 20.1149
RightForeArm  15.4021 13.6575 -3.54474
RightHand  -1.18171 5.41357 -12.6379
LeftUpLeg  -49.877 -6.28991 14.1645
LeftLeg  105.96 -12.7635 -1.85983
LeftFoot  -29.2466 -1.59483 -10.6476
LeftToes  7.79675e-011 9.80247e-012 -3.28897e-011
188
root  0.086938 21.9929 1.12828 -32.6224 83.8168 -5.93026
RightUpLeg  -55.2622 -10.7086 -3.77854
RightLeg  94.429 19.5889 -22.7892
RightFoot  -17.5451 0.294577 6.34744
RightToes  5.82077e-011 -3.18055e-015 -2.98177e-016
Spine  26.1054 -1.35313 10.8644
Spine1  9.87237 1.92948 -0.789111
HEad  -13.9492 -1.24048 0.619847
LeftShoulder1  -3.88251e-019 9.70628e-020 -3.87848e-018
LeftArm  -25.0908 52.769 -72.1019
LeftForeArm  -29.8559 -21.538 -0.329568
LeftHand  -0.454229 -1.03853 8.88322
RightShoulder  8.16638 10.9691 37.713
RightArm  6.22648 -36.6421 19.8719
RightForeArm  16.5712 13.1596 -3.35753
RightHand  -1.19496 5.50907 -12.6686
LeftUpLeg  -49.647 -6.47332 14.1564
LeftLeg  105.99 -12.7975 -1.74464
LeftFoot  -29.4071 -1.63353 -10.8067
LeftToes  7.79675e-011 9.80247e-012 -3.28897e-011
189
root  0.0907987 21.988 1.10628 -33.4793 83.8037 -6.57655
RightUpLeg  -54.9949 -10.6425 -3.81945
RightLeg  94.3955 19.5895 -22.8478
RightFoot  -17.5464 0.298165 6.44031
RightToes  5.82077e-011 -3.18055e-015 -2.98177e-016
Spine  26.0017 -1.43762 10.8955
Spine1  9.97002 1.84453 -0.747962
HEad  -13.8916 -1.14157 0.699986
LeftShoulder1  -3.88251e-019 9.70628e-020 -3.87848e-018
LeftArm  -22.8806 51.107 -71.3153
LeftForeArm  -25.8509 -21.5831 -0.57669
LeftHand  -0.510821 -1.64156 9.09903
RightShoulder  8.20494 10.9824 37.8699
RightArm  6.70747 -37.2562 19.2984
RightForeArm  16.7773 13.2158 -3.27426
RightHand  -1.22189 5.51049 -12.9482
LeftUpLeg  -49.4289 -6.75614 14.143
LeftLeg  106.009 -12.8463 -1.58325
LeftFoot  -29.5137 -1.65873 -10.9071
LeftToes  7.79675e-011 9.80247e-012 -3.28897e-011
190
root  0.0965475 21.9915 1.09124 -34.4104 83.7878 -7.35606
RightUpLeg  -54.7572 -10.4765 -3.81346
RightLeg  94.3045 19.5921 -23.0123
RightFoot  -17.5347 0.30395 6.6123
RightToes  5.82077e-011 -3.18055e-015 -2.98177e-016
Spine  25.8521 -1.61784 11.1531
Spine1  10.0759 1.81695 -1.14736
HEad  -13.7552 -1.02457 0.881957
LeftShoulder1  -3.88251e-019 9.70628e-020 -3.87848e-018
LeftArm  -20.895 49.6038 -70.5462
LeftForeArm  -22.7618 -21.3977 -0.973266
LeftHand  -0.529732 -2.05178 8.8982
RightShoulder  8.31547 11.0109 38.3402
RightArm  7.40148 -37.8781 18.6036
RightForeArm  16.4564 13.5399 -3.37853
RightHand  -1.22703 5.43646 -13.0867
LeftUpLeg  -49.2641 -6.99418 14.1635
LeftLeg  106.006 -12.8938 -1.42931
LeftFoot  -29.5733 -1.67086 -10.9491
LeftToes  7.79675e-011 9.80247e-012 -3.28897e-011
191
root  0.106937 21.9911 1.08535 -34.7095 83.7353 -7.59562
RightUpLeg  -54.6626 -10.2221 -3.7953
RightLeg  94.2474 19.61 -23.1852
RightFoot  -17.5067 0.308845 6.78876
RightToes  5.82077e-011 -3.18055e-015 -2.98177e-016
Spine  25.7246 -1.75038 11.28
Spine1  10.0937 1.77442 -1.44148
HEad  -13.5979 -0.812879 0.748328
LeftShoulder1  -3.88251e-019 9.70628e-020 -3.87848e-018
LeftArm  -19.7015 48.5995 -70.3738
LeftForeArm  -21.0133 -21.3284 -1.20173
LeftHand  -0.517144 -2.05907 8.68252
RightShoulder  8.38005 11.0263 38.6163
RightArm  8.01069 -38.5511 18.1401
RightForeArm  16.2468 13.8896 -3.56579
RightHand  -1.20685 5.55689 -12.74
LeftUpLeg  -49.1657 -7.13634 14.1839
LeftLeg  106.015 -12.9273 -1.31983
LeftFoot  -29.6438 -1.68859 -11.0215
LeftToes  7.79675e-011 9.80247e-012 -3.28897e-011
192
root  0.122167 21.9854 1.08347 -34.5332 83.6598 -7.42019
RightUpLeg  -54.671 -9.96704 -3.77573
RightLeg  94.229 19.6383 -23.3368
RightFoot  -17.4906 0.313048 6.9284
RightToes  5.82077e-011 -3.18055e-015 -2.98177e-016
Spine  25.7016 -1.78082 11.0162
Spine1  9.98505 1.60108 -1.15191
HEad  -13.5806 -0.387752 0.0420275
LeftShoulder1  -3.88251e-019 9.70628e-020 -3.87848e-018
LeftArm  -19.2219 48.2646 -70.8446
LeftForeArm  -20.5588 -21.5792 -1.1145
LeftHand  -0.48504 -1.86256 8.3762
RightShoulder  8.33956 11.0155 38.4458
RightArm  8.42022 -39.1769 18.0561
RightForeArm  16.1948 14.1071 -3.63921
RightHand  -1.17925 5.77146 -12.2215
LeftUpLeg  -49.1058 -7.24001 14.1989
LeftLeg  106.04 -12.9546 -1.22867
LeftFoot  -29.756 -1.72382 -11.1829
LeftToes  7.79675e-011 9.80247e-012 -3.28897e-011
193
root  0.135286 21.9818 1.07985 -34.5092 83.5625 -7.42227
RightUpLeg  -54.7044 -9.73003 -3.71674
RightLeg  94.1956 19.6594 -23.4828
RightFoot  -17.4651 0.31605 7.05362
RightToes  5.82077e-011 -3.18055e-015 -2.98177e-016
Spine  25.7458 -1.80863 10.5869
Spine1  9.82877 1.32714 -0.583291
HEad  -13.7115 0.273056 -0.948584
LeftShoulder1  -3.88251e-019 9.70628e-020 -3.87848e-018
LeftArm  -18.8627 48.4224 -71.3935
LeftForeArm  -20.5252 -22.0581 -0.79251
LeftHand  -0.450543 -1.87414 7.78215
RightShoulder  8.30441 11.008 38.2934
RightArm  8.47844 -39.5265 18.1537
RightForeArm  16.1015 14.1351 -3.62558
RightHand  -1.16637 5.73712 -12.1275
LeftUpLeg  -49.0694 -7.33955 14.2557
LeftLeg  106.057 -12.9835 -1.13382
LeftFoot  -29.8789 -1.77013 -11.409
LeftToes  7.79675e-011 9.80247e-012 -3.28897e-011
194
root  0.141605 21.9808 1.0723 -34.6699 83.4482 -7.60815
RightUpLeg  -54.7437 -9.46567 -3.65052
RightLeg  94.1638 19.6692 -23.5789
RightFoot  -17.376 0.315518 7.19927
RightToes  5.82077e-011 -3.18055e-015 -2.98177e-016
Spine  25.7986 -1.9327 10.3353
Spine1  9.70683 1.07286 -0.306348
HEad  -13.8686 1.01454 -1.73531
LeftShoulder1  -3.88251e-019 9.70628e-020 -3.87848e-018
LeftArm  -18.1162 48.7837 -71.5183
LeftForeArm  -20.2325 -22.5307 -0.447888
LeftHand  -0.423548 -2.09792 7.10444
RightShoulder  8.3817 11.0292 38.6174
RightArm  8.26569 -39.5223 18.1581
RightForeArm  16.0257 14.0641 -3.668
RightHand  -1.17499 5.51318 -12.4562
LeftUpLeg  -49.0465 -7.4319 14.335
LeftLeg  106.065 -13.0129 -1.03818
LeftFoot  -29.9681 -1.81246 -11.629
LeftToes  7.79675e-011 9.80247e-012 -3.28897e-011
195
root  0.145715 21.9787 1.06356 -34.4986 83.3357 -7.4401
RightUpLeg  -54.7877 -9.16573 -3.64889
RightLeg  94.1744 19.6783 -23.5985
RightFoot  -17.2463 0.312363 7.35464
RightToes  5.82077e-011 -3.18055e-015 -2.98177e-016
Spine  25.8634 -2.09055 10.2455
Spine1  9.62898 0.898014 -0.31588
HEad  -14.0072 1.57515 -2.24446
LeftShoulder1  -3.88251e-019 9.70628e-020 -3.87848e-018
LeftArm  -17.1815 49.2046 -71.3596
LeftForeArm  -19.8417 -22.7866 -0.315912
LeftHand  -0.406166 -2.19591 6.73156
RightShoulder  8.49382 11.0578 39.0903
RightArm  8.30517 -39.4216 18.0341
RightForeArm  15.8761 14.1118 -3.73462
RightHand  -1.18884 5.41938 -12.7058
LeftUpLeg  -49.0007 -7.51476 14.354
LeftLeg  106.069 -13.0469 -0.92836
LeftFoot  -30.0224 -1.84359 -11.7974
LeftToes  7.79675e-011 9.80247e-012 -3.28897e-011
